HIERARCHY
ROOT hip
{
	OFFSET 0.000000 0.000000 0.000000 
	CHANNELS 6 Xposition Yposition Zposition Xrotation Zrotation Yrotation
	JOINT abdomen
	{
		OFFSET 0.000000 3.402643 0.000000 
		CHANNELS 3 Xrotation Zrotation Yrotation
		JOINT chest
		{
			OFFSET 0.000000 8.438565 -0.680529 
			CHANNELS 3 Xrotation Zrotation Yrotation
			JOINT neck
			{
				OFFSET 0.000000 10.207942 -0.272212 
				CHANNELS 3 Xrotation Zrotation Yrotation
				JOINT head
				{
					OFFSET 0.000000 3.130431 0.000000 
					CHANNELS 3 Xrotation Zrotation Yrotation
					End Site
					{
						OFFSET 0.000000 3.130435 0.000000 
					}
				}
			}
			JOINT lCollar
			{
				OFFSET 3.470700 6.669187 -0.816635 
				CHANNELS 3 Yrotation Zrotation Xrotation
				JOINT lShldr
				{
					OFFSET 3.198488 0.000000 0.000000 
					CHANNELS 3 Zrotation Yrotation Xrotation
					JOINT lForeArm
					{
						OFFSET 10.139888 0.000000 0.000000 
						CHANNELS 3 Yrotation Zrotation Xrotation
						JOINT lHand
						{
							OFFSET 8.370511 0.000000 0.000000 
							CHANNELS 3 Zrotation Yrotation Xrotation
							End Site
							{
								OFFSET 4.083176 0.000000 0.000000 
							}
						}
					}
				}
			}
			JOINT rCollar
			{
				OFFSET -3.470700 6.669187 -0.816635 
				CHANNELS 3 Yrotation Zrotation Xrotation
				JOINT rShldr
				{
					OFFSET -3.198488 0.000000 0.000000 
					CHANNELS 3 Zrotation Yrotation Xrotation
					JOINT rForeArm
					{
						OFFSET -10.139888 0.000000 0.000000 
						CHANNELS 3 Yrotation Zrotation Xrotation
						JOINT rHand
						{
							OFFSET -8.370511 0.000000 0.000000 
							CHANNELS 3 Zrotation Yrotation Xrotation
							End Site
							{
								OFFSET -4.083176 0.000000 0.000000 
							}
						}
					}
				}
			}
		}
	}
	JOINT lThigh
	{
		OFFSET 5.308129 -1.633274 1.361059 
		CHANNELS 3 Xrotation Zrotation Yrotation
		JOINT lShin
		{
			OFFSET -2.041588 -20.007561 0.000000 
			CHANNELS 3 Xrotation Zrotation Yrotation
			JOINT lFoot
			{
				OFFSET 0.000000 -19.190928 -1.224953 
				CHANNELS 3 Xrotation Yrotation Zrotation
				End Site
				{
					OFFSET 0.000000 -2.449906 4.627600 
				}
			}
		}
	}
	JOINT rThigh
	{
		OFFSET -5.308129 -1.633274 1.361059 
		CHANNELS 3 Xrotation Zrotation Yrotation
		JOINT rShin
		{
			OFFSET 2.041588 -20.007561 0.000000 
			CHANNELS 3 Xrotation Zrotation Yrotation
			JOINT rFoot
			{
				OFFSET 0.000000 -19.190928 -1.224953 
				CHANNELS 3 Xrotation Yrotation Zrotation
				End Site
				{
					OFFSET 0.000000 -2.449906 4.627600 
				}
			}
		}
	}
}
MOTION
Frames: 6
Frame Time: 0.016667
31.882793 45.048660 97.086731 -8.974610 2.255859 -147.666016 0.000000 0.000000 0.000000 6.503906 -0.351563 -8.310606 -17.861328 -1.972656 -7.392578 -14.628906 -3.242188 -14.805374 1.845703 -18.261719 3.759766 -38.027344 -3.447265 2.265625 -101.064453 1.728516 6.571972 6.435547 0.605469 12.919921 3.945313 12.626954 3.161928 31.152342 12.460938 20.185547 96.083984 0.185547 6.552699 -1.406250 14.677733 -10.722657 -31.291677 19.849091 0.391911 39.041801 -1.486467 -4.119132 7.656480 -4.264368 11.559022 -21.501129 -3.475588 -17.675533 58.209209 0.857943 5.084284 -14.709500 0.496135 -8.221890 
32.086056 45.005215 97.573936 -8.623047 2.597656 -142.607422 0.000000 0.000000 0.000000 5.976563 -0.878906 -10.820313 -17.324221 -2.050781 -7.919922 -13.759767 -3.427734 -16.191408 1.855469 -18.613281 3.948430 -37.373047 -2.021484 2.294579 -104.091797 1.611328 6.503631 6.679688 -0.439453 11.503833 3.945313 12.626954 3.161928 29.394531 6.787109 19.796078 95.898438 0.175781 6.728482 -0.009766 15.283204 -11.035155 -28.053015 21.364462 0.839736 41.180523 -1.229499 -3.790656 7.740934 -4.055538 10.305290 -21.681627 -3.296925 -18.233538 58.049103 0.840011 4.910913 -15.283110 0.872077 -10.023267 
32.224148 44.924530 98.085976 -8.623047 2.597656 -137.861328 0.000000 0.000000 0.000000 5.625000 -1.933594 -12.334314 -16.962889 -2.353516 -8.740635 -12.880860 -3.769531 -17.695311 1.855469 -18.964844 3.964844 -36.542969 -0.410156 2.333982 -106.757813 1.464844 6.396235 7.089843 -1.289063 10.253906 3.574219 12.246094 3.083757 28.320313 0.957031 19.355469 95.722656 0.175781 6.728512 0.996094 16.220703 -11.842972 -24.772200 22.633732 1.961065 42.230255 -1.112759 -3.999596 8.040822 -3.717084 9.500150 -22.088453 -3.661706 -18.908978 58.202854 0.693270 5.199410 -15.769951 1.633163 -12.584730 
32.329659 44.797302 98.629051 -8.798827 2.597656 -133.124557 0.000000 0.000000 0.000000 5.097656 -3.330078 -13.144530 -16.767578 -2.646484 -9.570313 -12.187499 -4.121094 -19.385468 1.855469 -18.964844 3.789063 -35.703125 1.191406 2.724813 -109.062500 1.318359 6.455079 7.646484 -1.777344 9.345703 3.388672 11.708984 3.154297 27.773438 -5.390625 19.042048 95.205078 0.136719 6.542970 1.132813 16.933594 -13.590904 -21.910931 23.267935 3.656147 42.927395 -1.057343 -4.200763 8.361243 -3.596771 9.006976 -22.818987 -4.568892 -18.455946 59.069832 0.525974 5.486142 -16.288456 2.032101 -14.376896 
32.433617 44.620411 99.201584 -9.160156 2.773437 -128.593262 0.000000 0.000000 0.000000 4.755859 -4.560547 -13.232424 -16.562500 -2.968750 -10.566405 -11.669923 -4.628906 -21.347654 2.041015 -18.603518 3.828125 -34.658203 2.099609 3.642578 -110.996094 1.230469 6.503696 8.212890 -2.275390 8.613282 3.203125 10.986226 3.054813 28.105467 -11.894530 18.720703 94.140625 0.087891 6.699204 0.380859 17.597658 -16.266577 -19.849836 23.862061 5.676636 43.612614 -0.940577 -4.193204 8.741421 -3.631303 9.149980 -24.060474 -4.920955 -17.573282 60.318447 0.498040 5.017677 -16.531322 2.444790 -15.536908 
32.556198 44.381462 99.792770 -9.335938 2.939453 -123.710434 0.000000 0.000000 0.000000 4.589844 -5.615234 -12.949220 -16.542969 -3.261719 -11.386719 -11.513672 -5.126953 -23.115234 2.402344 -18.242188 3.750000 -33.583981 2.480469 5.098081 -112.236328 1.142578 6.533008 8.779296 -2.939453 8.056641 3.378906 10.117187 2.900391 29.150391 -18.554688 18.320311 92.734375 0.000000 6.669922 -1.416016 17.666016 -19.586878 -18.375122 23.909834 7.432073 44.688816 -0.774718 -4.175918 9.443059 -3.770707 9.313644 -25.419817 -5.595780 -16.453285 62.231335 0.180585 5.471545 -16.541805 2.718116 -16.787800 
